<svg width="21" height="20" viewBox="0 0 21 20" fill="none" xmlns="http://www.w3.org/2000/svg">
<g filter="url(#filter0_i_178_5687)">
<path d="M10.29 19.2629L8.79795 17.8772C3.4986 12.9749 0 9.74166 0 5.77362C0 2.54039 2.49018 0 5.6595 0C7.44996 0 9.16839 0.850296 10.29 2.19397C11.4116 0.850296 13.13 0 14.9205 0C18.0898 0 20.58 2.54039 20.58 5.77362C20.58 9.74166 17.0814 12.9749 11.7821 17.8877L10.29 19.2629Z" fill="#5B7DF5" fill-opacity="0.9"/>
</g>
<path d="M8.83306 17.8394L8.83298 17.8393L8.82266 17.8298C6.17658 15.382 3.98411 13.3537 2.45197 11.4428C0.918456 9.53013 0.0515873 7.74103 0.0515873 5.77362C0.0515873 2.56791 2.51964 0.0515873 5.6595 0.0515873C7.43395 0.0515873 9.13812 0.894538 10.2504 2.22703L10.29 2.27448L10.3296 2.22703C11.4419 0.894538 13.146 0.0515873 14.9205 0.0515873C18.0604 0.0515873 20.5284 2.56791 20.5284 5.77362C20.5284 7.74103 19.6615 9.53013 18.128 11.4441C16.6012 13.3497 14.4187 15.3731 11.7849 17.8147L11.7471 17.8498L11.747 17.8499L10.2901 19.1926L8.83306 17.8394Z" stroke="#5B7DF5" stroke-width="0.103175"/>
<defs>
<filter id="filter0_i_178_5687" x="0" y="0" width="20.5801" height="19.6756" filterUnits="userSpaceOnUse" color-interpolation-filters="sRGB">
<feFlood flood-opacity="0" result="BackgroundImageFix"/>
<feBlend mode="normal" in="SourceGraphic" in2="BackgroundImageFix" result="shape"/>
<feColorMatrix in="SourceAlpha" type="matrix" values="0 0 0 0 0 0 0 0 0 0 0 0 0 0 0 0 0 0 127 0" result="hardAlpha"/>
<feOffset dy="0.412698"/>
<feGaussianBlur stdDeviation="0.773809"/>
<feComposite in2="hardAlpha" operator="arithmetic" k2="-1" k3="1"/>
<feColorMatrix type="matrix" values="0 0 0 0 0 0 0 0 0 0 0 0 0 0 0 0 0 0 0.25 0"/>
<feBlend mode="normal" in2="shape" result="effect1_innerShadow_178_5687"/>
</filter>
</defs>
</svg>
