<svg width="24" height="25" viewBox="0 0 24 25" fill="none" xmlns="http://www.w3.org/2000/svg">
<path d="M5 3.78113L2 6.68738M22 6.68738L19 3.78113M6 19.2811L4 21.2186M18 19.2811L20 21.2186M12 9.59363V13.4686L14 15.4061M12 21.2186C14.1217 21.2186 16.1566 20.4021 17.6569 18.9487C19.1571 17.4953 20 15.5241 20 13.4686C20 11.4132 19.1571 9.44196 17.6569 7.98855C16.1566 6.53514 14.1217 5.71863 12 5.71863C9.87827 5.71863 7.84344 6.53514 6.34315 7.98855C4.84285 9.44196 4 11.4132 4 13.4686C4 15.5241 4.84285 17.4953 6.34315 18.9487C7.84344 20.4021 9.87827 21.2186 12 21.2186Z" stroke="black" stroke-opacity="0.7" stroke-width="2.42105" stroke-linecap="round" stroke-linejoin="round"/>
</svg>
