<svg width="70" height="70" viewBox="0 0 70 70" fill="none" xmlns="http://www.w3.org/2000/svg">
<circle cx="35" cy="35" r="35" fill="#147AEA" fill-opacity="0.5"/>
<path fill-rule="evenodd" clip-rule="evenodd" d="M35 20C26.7157 20 20 26.7157 20 35C20 43.2842 26.7157 50 35 50C43.2843 50 50 43.2842 50 35C50 26.7157 43.2843 20 35 20ZM16.6667 35C16.6667 24.8747 24.8748 16.6666 35 16.6666C45.1252 16.6666 53.3334 24.8747 53.3334 35C53.3334 45.1252 45.1252 53.3333 35 53.3333C24.8748 53.3333 16.6667 45.1252 16.6667 35Z" fill="black"/>
<path fill-rule="evenodd" clip-rule="evenodd" d="M30.8802 26.8638C31.4222 26.5738 32.0797 26.6056 32.5912 26.9465L42.5912 33.6132C43.0548 33.9223 43.3333 34.4427 43.3333 35C43.3333 35.5572 43.0548 36.0776 42.5912 36.3867L32.5912 43.0534C32.0797 43.3943 31.4222 43.4261 30.8802 43.1361C30.3383 42.8461 30 42.2813 30 41.6666V28.3333C30 27.7186 30.3383 27.1539 30.8802 26.8638ZM33.3333 31.4475V38.5524L38.662 35L33.3333 31.4475Z" fill="black"/>
</svg>
