<svg width="70" height="70" viewBox="0 0 70 70" fill="none" xmlns="http://www.w3.org/2000/svg">
<path d="M57 38.2501C57 38.5816 56.8684 38.8995 56.6339 39.134C56.3995 39.3684 56.0816 39.5001 55.75 39.5001H53.25V42.0001C53.25 42.3316 53.1184 42.6495 52.8839 42.884C52.6495 43.1184 52.3316 43.2501 52 43.2501C51.6685 43.2501 51.3506 43.1184 51.1162 42.884C50.8817 42.6495 50.75 42.3316 50.75 42.0001V39.5001H48.25C47.9185 39.5001 47.6006 39.3684 47.3662 39.134C47.1317 38.8995 47 38.5816 47 38.2501C47 37.9186 47.1317 37.6006 47.3662 37.3662C47.6006 37.1318 47.9185 37.0001 48.25 37.0001H50.75V34.5001C50.75 34.1686 50.8817 33.8506 51.1162 33.6162C51.3506 33.3818 51.6685 33.2501 52 33.2501C52.3316 33.2501 52.6495 33.3818 52.8839 33.6162C53.1184 33.8506 53.25 34.1686 53.25 34.5001V37.0001H55.75C56.0816 37.0001 56.3995 37.1318 56.6339 37.3662C56.8684 37.6006 57 37.9186 57 38.2501ZM39.5157 41.6251C41.47 40.4008 42.973 38.5739 43.7976 36.4202C44.6222 34.2665 44.7237 31.903 44.0868 29.6865C43.4499 27.4701 42.1091 25.521 40.2669 24.1337C38.4247 22.7463 36.1812 21.996 33.875 21.996C31.5689 21.996 29.3253 22.7463 27.4832 24.1337C25.641 25.521 24.3002 27.4701 23.6633 29.6865C23.0264 31.903 23.1279 34.2665 23.9525 36.4202C24.7771 38.5739 26.2801 40.4008 28.2344 41.6251C24.8268 42.6861 21.7989 44.7102 19.5157 47.4532C19.3605 47.6336 19.2615 47.8555 19.231 48.0915C19.2004 48.3276 19.2396 48.5674 19.3438 48.7813C19.4427 48.9964 19.6013 49.1785 19.8007 49.3059C20.0002 49.4333 20.2321 49.5007 20.4688 49.5001H47.2813C47.518 49.5007 47.7499 49.4333 47.9493 49.3059C48.1488 49.1785 48.3074 48.9964 48.4063 48.7813C48.5104 48.5674 48.5497 48.3276 48.5191 48.0915C48.4886 47.8555 48.3896 47.6336 48.2344 47.4532C45.9512 44.7102 42.9233 42.6861 39.5157 41.6251Z" fill="black"/>
<path d="M70 35C70 54.33 54.33 70 35 70C15.67 70 0 54.33 0 35C0 15.67 15.67 0 35 0C54.33 0 70 15.67 70 35Z" fill="#00D44D" fill-opacity="0.5"/>
</svg>
