<svg width="70" height="70" viewBox="0 0 70 70" fill="none" xmlns="http://www.w3.org/2000/svg">
<circle cx="35" cy="35" r="35" fill="#EA1414" fill-opacity="0.5"/>
<path fill-rule="evenodd" clip-rule="evenodd" d="M54.096 25.1847C54.6511 25.4704 55 26.0424 55 26.6667V43.3333C55 43.9577 54.6511 44.5296 54.096 44.8153C53.5408 45.101 52.8726 45.0524 52.3646 44.6896L40.6979 36.3562C40.2599 36.0434 40 35.5383 40 35C40 34.4618 40.2599 33.9566 40.6979 33.6438L52.3646 25.3105C52.8726 24.9476 53.5408 24.8991 54.096 25.1847ZM44.5341 35L51.6667 40.0947V29.9053L44.5341 35Z" fill="black"/>
<path fill-rule="evenodd" clip-rule="evenodd" d="M20 25C19.0795 25 18.3333 25.7462 18.3333 26.6666V43.3333C18.3333 44.2538 19.0795 45 20 45H38.3333C39.2538 45 40 44.2538 40 43.3333V26.6666C40 25.7462 39.2538 25 38.3333 25H20ZM15 26.6666C15 23.9052 17.2386 21.6666 20 21.6666H38.3333C41.0948 21.6666 43.3333 23.9052 43.3333 26.6666V43.3333C43.3333 46.0947 41.0948 48.3333 38.3333 48.3333H20C17.2386 48.3333 15 46.0947 15 43.3333V26.6666Z" fill="black"/>
</svg>
